# xmcd
#
# Track frame offsets:
#	150
#	15473
#	35948
#	60271
#	91690
#	124095
#	143070
#	165561
#	189380
#	224132
#
# Disc length: 3785 seconds
#
# Revision: 0
# Processed by: cddbd v1.5.2PL0 Copyright (c) Steve Scherf et al.
# Submitted via: audiograbber 1.83.01
#
DISCID=850ec70a
DTITLE=Jessie Mae Hemphill and Friends - Dare You To Do It Again /Songs For Pooki
DTITLE=e
DYEAR=2004
DGENRE=Blues
TTITLE0=Fife and Drum Intro
TTITLE1=Lay My Burden Down 
TTITLE2=Nobody's Fault But Mine
TTITLE3=Old Time Religion
TTITLE4=Saints Go Marching In
TTITLE5=Little Sally Walker
TTITLE6=I Shall Not Be Moved
TTITLE7=This Little Light Of Mine
TTITLE8=Motherless Children
TTITLE9=Daten-CD
EXTD=
EXTT0=
EXTT1=
EXTT2=
EXTT3=
EXTT4=
EXTT5=
EXTT6=
EXTT7=
EXTT8=
EXTT9=
PLAYORDER=
